<?xml version="1.0" encoding="UTF-8"?>
<!DOCTYPE svg PUBLIC "-//W3C//DTD SVG 1.1//EN" "http://www.w3.org/Graphics/SVG/1.1/DTD/svg11.dtd">

<svg xmlns="http://www.w3.org/2000/svg" style="background: transparent; background-color: transparent; color-scheme: light dark;" xmlns:xlink="http://www.w3.org/1999/xlink" version="1.1" width="351px" height="101px" viewBox="-0.5 -0.5 351 101">
    <path d="M 125 50 C 125 22.39 147.39 0 175 0 C 188.26 0 200.98 5.27 210.36 14.64 C 219.73 24.02 225 36.74 225 50 C 225 63.26 219.73 75.98 210.36 85.36 C 200.98 94.73 188.26 100 175 100 C 161.74 100 149.02 94.73 139.64 85.36 C 130.27 75.98 125 63.26 125 50 Z M 175 50 Z" fill="#ffffff" />
    <path d="M 0 50 C 0 22.39 22.39 0 50 0 C 63.26 0 75.98 5.27 85.36 14.64 C 94.73 24.02 100 36.74 100 50 C 100 63.26 94.73 75.98 85.36 85.36 C 75.98 94.73 63.26 100 50 100 C 36.74 100 24.02 94.73 14.64 85.36 C 5.27 75.98 0 63.26 0 50 Z M 50 50 Z" fill="#ffffff" />
    <path d="M 250 50 C 250 22.39 272.39 0 300 0 C 313.26 0 325.98 5.27 335.36 14.64 C 344.73 24.02 350 36.74 350 50 C 350 63.26 344.73 75.98 335.36 85.36 C 325.98 94.73 313.26 100 300 100 C 286.74 100 274.02 94.73 264.64 85.36 C 255.27 75.98 250 63.26 250 50 Z M 300 50 Z" fill="#ffffff" />
</svg>